<svg xmlns="http://www.w3.org/2000/svg" xmlns:xlink="http://www.w3.org/1999/xlink" width="1000" zoomAndPan="magnify" viewBox="0 0 750 225" height="300" preserveAspectRatio="xMidYMid meet" version="1.0"><defs><g/><clipPath id="5a07905084"><path d="M 383 98 L 398 98 L 398 140 L 383 140 Z M 383 98 " clip-rule="nonzero"/></clipPath><clipPath id="0d3972e645"><path d="M 377.597656 102.671875 L 396.542969 98.054688 L 405.597656 135.21875 L 386.652344 139.835938 Z M 377.597656 102.671875 " clip-rule="nonzero"/></clipPath><clipPath id="29f33dd3e9"><path d="M 377.597656 102.671875 L 396.542969 98.054688 L 405.597656 135.21875 L 386.652344 139.835938 Z M 377.597656 102.671875 " clip-rule="nonzero"/></clipPath><clipPath id="7aebc8e967"><path d="M 383 99 L 391 99 L 391 140 L 383 140 Z M 383 99 " clip-rule="nonzero"/></clipPath><clipPath id="5a170bfc10"><path d="M 377.597656 102.671875 L 396.542969 98.054688 L 405.597656 135.21875 L 386.652344 139.835938 Z M 377.597656 102.671875 " clip-rule="nonzero"/></clipPath><clipPath id="d19525d4c7"><path d="M 377.597656 102.671875 L 396.542969 98.054688 L 405.597656 135.21875 L 386.652344 139.835938 Z M 377.597656 102.671875 " clip-rule="nonzero"/></clipPath></defs><g fill="#ffffff" fill-opacity="1"><g transform="translate(64.800794, 142.366257)"><g><path d="M 18.3125 -45.40625 L 0.328125 -45.40625 L 0.328125 -58.53125 L 52.765625 -58.53125 L 52.765625 -45.40625 L 34.875 -45.40625 L 34.875 0 L 18.3125 0 Z M 18.3125 -45.40625 "/></g></g></g><g fill="#ffffff" fill-opacity="1"><g transform="translate(109.373236, 142.366257)"><g><path d="M 34.625 -46.078125 C 40.25 -46.078125 44.773438 -44.40625 48.203125 -41.0625 C 51.640625 -37.71875 53.359375 -32.671875 53.359375 -25.921875 L 53.359375 0 L 37.46875 0 L 37.46875 -23.328125 C 37.46875 -29.515625 34.984375 -32.609375 30.015625 -32.609375 C 27.285156 -32.609375 25.097656 -31.71875 23.453125 -29.9375 C 21.804688 -28.15625 20.984375 -25.476562 20.984375 -21.90625 L 20.984375 0 L 5.09375 0 L 5.09375 -62.046875 L 20.984375 -62.046875 L 20.984375 -41.140625 C 22.710938 -42.753906 24.75 -43.976562 27.09375 -44.8125 C 29.4375 -45.65625 31.945312 -46.078125 34.625 -46.078125 Z M 34.625 -46.078125 "/></g></g></g><g fill="#ffffff" fill-opacity="1"><g transform="translate(159.046856, 142.366257)"><g><path d="M 51.421875 -22.578125 C 51.421875 -22.460938 51.335938 -21.148438 51.171875 -18.640625 L 18.234375 -18.640625 C 18.898438 -16.304688 20.191406 -14.507812 22.109375 -13.25 C 24.035156 -12 26.453125 -11.375 29.359375 -11.375 C 31.523438 -11.375 33.398438 -11.679688 34.984375 -12.296875 C 36.578125 -12.910156 38.1875 -13.910156 39.8125 -15.296875 L 48.171875 -6.609375 C 43.765625 -1.703125 37.320312 0.75 28.84375 0.75 C 23.550781 0.75 18.894531 -0.25 14.875 -2.25 C 10.863281 -4.257812 7.757812 -7.046875 5.5625 -10.609375 C 3.363281 -14.179688 2.265625 -18.226562 2.265625 -22.75 C 2.265625 -27.207031 3.335938 -31.207031 5.484375 -34.75 C 7.628906 -38.289062 10.59375 -41.0625 14.375 -43.0625 C 18.164062 -45.070312 22.429688 -46.078125 27.171875 -46.078125 C 31.691406 -46.078125 35.789062 -45.140625 39.46875 -43.265625 C 43.144531 -41.398438 46.054688 -38.695312 48.203125 -35.15625 C 50.347656 -31.625 51.421875 -27.429688 51.421875 -22.578125 Z M 27.265625 -34.78125 C 24.804688 -34.78125 22.753906 -34.082031 21.109375 -32.6875 C 19.460938 -31.300781 18.421875 -29.410156 17.984375 -27.015625 L 36.546875 -27.015625 C 36.097656 -29.410156 35.050781 -31.300781 33.40625 -32.6875 C 31.757812 -34.082031 29.710938 -34.78125 27.265625 -34.78125 Z M 27.265625 -34.78125 "/></g></g></g><g fill="#ffffff" fill-opacity="1"><g transform="translate(204.204681, 142.366257)"><g/></g></g><g fill="#ffffff" fill-opacity="1"><g transform="translate(220.009936, 142.366257)"><g><path d="M 58.703125 0 L 58.53125 -31.03125 L 43.484375 -5.765625 L 36.125 -5.765625 L 21.15625 -30.1875 L 21.15625 0 L 5.859375 0 L 5.859375 -58.53125 L 19.484375 -58.53125 L 40.0625 -24.75 L 60.125 -58.53125 L 73.75 -58.53125 L 73.921875 0 Z M 58.703125 0 "/></g></g></g><g fill="#ffffff" fill-opacity="1"><g transform="translate(291.258968, 142.366257)"><g><path d="M 52.765625 -45.328125 L 52.765625 0 L 37.625 0 L 37.625 -4.84375 C 35.957031 -3.007812 33.953125 -1.617188 31.609375 -0.671875 C 29.265625 0.273438 26.785156 0.75 24.171875 0.75 C 18.316406 0.75 13.644531 -0.972656 10.15625 -4.421875 C 6.675781 -7.878906 4.9375 -13.066406 4.9375 -19.984375 L 4.9375 -45.328125 L 20.828125 -45.328125 L 20.828125 -22.578125 C 20.828125 -19.179688 21.46875 -16.703125 22.75 -15.140625 C 24.03125 -13.578125 25.894531 -12.796875 28.34375 -12.796875 C 30.851562 -12.796875 32.898438 -13.671875 34.484375 -15.421875 C 36.078125 -17.179688 36.875 -19.875 36.875 -23.5 L 36.875 -45.328125 Z M 52.765625 -45.328125 "/></g></g></g><g fill="#ffffff" fill-opacity="1"><g transform="translate(340.598096, 142.366257)"><g><path d="M 21.578125 0.75 C 17.785156 0.75 14.046875 0.316406 10.359375 -0.546875 C 6.679688 -1.410156 3.726562 -2.539062 1.5 -3.9375 L 6.265625 -14.796875 C 8.328125 -13.515625 10.78125 -12.5 13.625 -11.75 C 16.46875 -11 19.285156 -10.625 22.078125 -10.625 C 24.640625 -10.625 26.460938 -10.882812 27.546875 -11.40625 C 28.640625 -11.9375 29.1875 -12.707031 29.1875 -13.71875 C 29.1875 -14.71875 28.53125 -15.425781 27.21875 -15.84375 C 25.90625 -16.257812 23.828125 -16.664062 20.984375 -17.0625 C 17.359375 -17.507812 14.273438 -18.09375 11.734375 -18.8125 C 9.203125 -19.539062 7.015625 -20.878906 5.171875 -22.828125 C 3.335938 -24.773438 2.421875 -27.507812 2.421875 -31.03125 C 2.421875 -33.925781 3.285156 -36.5 5.015625 -38.75 C 6.742188 -41.007812 9.265625 -42.796875 12.578125 -44.109375 C 15.898438 -45.421875 19.875 -46.078125 24.5 -46.078125 C 27.789062 -46.078125 31.050781 -45.742188 34.28125 -45.078125 C 37.519531 -44.410156 40.222656 -43.460938 42.390625 -42.234375 L 37.625 -31.4375 C 33.613281 -33.664062 29.265625 -34.78125 24.578125 -34.78125 C 22.078125 -34.78125 20.238281 -34.488281 19.0625 -33.90625 C 17.894531 -33.320312 17.3125 -32.554688 17.3125 -31.609375 C 17.3125 -30.546875 17.953125 -29.804688 19.234375 -29.390625 C 20.515625 -28.972656 22.632812 -28.539062 25.59375 -28.09375 C 29.320312 -27.539062 32.410156 -26.898438 34.859375 -26.171875 C 37.316406 -25.453125 39.453125 -24.128906 41.265625 -22.203125 C 43.078125 -20.273438 43.984375 -17.582031 43.984375 -14.125 C 43.984375 -11.289062 43.117188 -8.742188 41.390625 -6.484375 C 39.660156 -4.222656 37.109375 -2.453125 33.734375 -1.171875 C 30.367188 0.109375 26.316406 0.75 21.578125 0.75 Z M 21.578125 0.75 "/></g></g></g><g fill="#ffffff" fill-opacity="1"><g transform="translate(377.811505, 142.366257)"><g><path d="M 5.09375 -45.328125 L 20.984375 -45.328125 L 20.984375 0 L 5.09375 0 Z M 13.046875 -50.34375 C 10.148438 -50.34375 7.8125 -51.148438 6.03125 -52.765625 C 4.25 -54.378906 3.359375 -56.382812 3.359375 -58.78125 C 3.359375 -61.1875 4.25 -63.195312 6.03125 -64.8125 C 7.8125 -66.425781 10.148438 -67.234375 13.046875 -67.234375 C 15.953125 -67.234375 18.296875 -66.46875 20.078125 -64.9375 C 21.859375 -63.40625 22.75 -61.441406 22.75 -59.046875 C 22.75 -56.535156 21.859375 -54.457031 20.078125 -52.8125 C 18.296875 -51.164062 15.953125 -50.34375 13.046875 -50.34375 Z M 13.046875 -50.34375 "/></g></g></g><g fill="#ffffff" fill-opacity="1"><g transform="translate(395.456512, 142.366257)"><g><path d="M 28.265625 0.75 C 23.242188 0.75 18.753906 -0.25 14.796875 -2.25 C 10.835938 -4.257812 7.757812 -7.046875 5.5625 -10.609375 C 3.363281 -14.179688 2.265625 -18.226562 2.265625 -22.75 C 2.265625 -27.257812 3.363281 -31.285156 5.5625 -34.828125 C 7.757812 -38.367188 10.835938 -41.128906 14.796875 -43.109375 C 18.753906 -45.085938 23.242188 -46.078125 28.265625 -46.078125 C 33.390625 -46.078125 37.820312 -44.972656 41.5625 -42.765625 C 45.300781 -40.566406 47.945312 -37.519531 49.5 -33.625 L 37.21875 -27.34375 C 35.15625 -31.414062 32.144531 -33.453125 28.1875 -33.453125 C 25.34375 -33.453125 22.984375 -32.503906 21.109375 -30.609375 C 19.242188 -28.710938 18.3125 -26.09375 18.3125 -22.75 C 18.3125 -19.34375 19.242188 -16.675781 21.109375 -14.75 C 22.984375 -12.832031 25.34375 -11.875 28.1875 -11.875 C 32.144531 -11.875 35.15625 -13.910156 37.21875 -17.984375 L 49.5 -11.703125 C 47.945312 -7.804688 45.300781 -4.753906 41.5625 -2.546875 C 37.820312 -0.347656 33.390625 0.75 28.265625 0.75 Z M 28.265625 0.75 "/></g></g></g><g fill="#ffffff" fill-opacity="1"><g transform="translate(437.352958, 142.366257)"><g/></g></g><g fill="#ffffff" fill-opacity="1"><g transform="translate(453.158213, 142.366257)"><g><path d="M 18.3125 -45.40625 L 0.328125 -45.40625 L 0.328125 -58.53125 L 52.765625 -58.53125 L 52.765625 -45.40625 L 34.875 -45.40625 L 34.875 0 L 18.3125 0 Z M 18.3125 -45.40625 "/></g></g></g><g fill="#ffffff" fill-opacity="1"><g transform="translate(497.730662, 142.366257)"><g><path d="M 5.09375 -45.328125 L 20.984375 -45.328125 L 20.984375 0 L 5.09375 0 Z M 13.046875 -50.34375 C 10.148438 -50.34375 7.8125 -51.148438 6.03125 -52.765625 C 4.25 -54.378906 3.359375 -56.382812 3.359375 -58.78125 C 3.359375 -61.1875 4.25 -63.195312 6.03125 -64.8125 C 7.8125 -66.425781 10.148438 -67.234375 13.046875 -67.234375 C 15.953125 -67.234375 18.296875 -66.46875 20.078125 -64.9375 C 21.859375 -63.40625 22.75 -61.441406 22.75 -59.046875 C 22.75 -56.535156 21.859375 -54.457031 20.078125 -52.8125 C 18.296875 -51.164062 15.953125 -50.34375 13.046875 -50.34375 Z M 13.046875 -50.34375 "/></g></g></g><g fill="#ffffff" fill-opacity="1"><g transform="translate(515.37567, 142.366257)"><g><path d="M 64.140625 -46.078125 C 69.710938 -46.078125 74.15625 -44.40625 77.46875 -41.0625 C 80.789062 -37.71875 82.453125 -32.671875 82.453125 -25.921875 L 82.453125 0 L 66.5625 0 L 66.5625 -23.328125 C 66.5625 -26.503906 65.960938 -28.84375 64.765625 -30.34375 C 63.566406 -31.851562 61.878906 -32.609375 59.703125 -32.609375 C 57.304688 -32.609375 55.382812 -31.769531 53.9375 -30.09375 C 52.488281 -28.425781 51.765625 -25.894531 51.765625 -22.5 L 51.765625 0 L 35.875 0 L 35.875 -23.328125 C 35.875 -29.515625 33.585938 -32.609375 29.015625 -32.609375 C 26.566406 -32.609375 24.613281 -31.769531 23.15625 -30.09375 C 21.707031 -28.425781 20.984375 -25.894531 20.984375 -22.5 L 20.984375 0 L 5.09375 0 L 5.09375 -45.328125 L 20.234375 -45.328125 L 20.234375 -40.5625 C 21.910156 -42.394531 23.90625 -43.769531 26.21875 -44.6875 C 28.53125 -45.613281 31.050781 -46.078125 33.78125 -46.078125 C 36.957031 -46.078125 39.800781 -45.488281 42.3125 -44.3125 C 44.820312 -43.144531 46.859375 -41.363281 48.421875 -38.96875 C 50.203125 -41.25 52.457031 -43.003906 55.1875 -44.234375 C 57.925781 -45.460938 60.910156 -46.078125 64.140625 -46.078125 Z M 64.140625 -46.078125 "/></g></g></g><g fill="#ffffff" fill-opacity="1"><g transform="translate(594.234633, 142.366257)"><g><path d="M 51.421875 -22.578125 C 51.421875 -22.460938 51.335938 -21.148438 51.171875 -18.640625 L 18.234375 -18.640625 C 18.898438 -16.304688 20.191406 -14.507812 22.109375 -13.25 C 24.035156 -12 26.453125 -11.375 29.359375 -11.375 C 31.523438 -11.375 33.398438 -11.679688 34.984375 -12.296875 C 36.578125 -12.910156 38.1875 -13.910156 39.8125 -15.296875 L 48.171875 -6.609375 C 43.765625 -1.703125 37.320312 0.75 28.84375 0.75 C 23.550781 0.75 18.894531 -0.25 14.875 -2.25 C 10.863281 -4.257812 7.757812 -7.046875 5.5625 -10.609375 C 3.363281 -14.179688 2.265625 -18.226562 2.265625 -22.75 C 2.265625 -27.207031 3.335938 -31.207031 5.484375 -34.75 C 7.628906 -38.289062 10.59375 -41.0625 14.375 -43.0625 C 18.164062 -45.070312 22.429688 -46.078125 27.171875 -46.078125 C 31.691406 -46.078125 35.789062 -45.140625 39.46875 -43.265625 C 43.144531 -41.398438 46.054688 -38.695312 48.203125 -35.15625 C 50.347656 -31.625 51.421875 -27.429688 51.421875 -22.578125 Z M 27.265625 -34.78125 C 24.804688 -34.78125 22.753906 -34.082031 21.109375 -32.6875 C 19.460938 -31.300781 18.421875 -29.410156 17.984375 -27.015625 L 36.546875 -27.015625 C 36.097656 -29.410156 35.050781 -31.300781 33.40625 -32.6875 C 31.757812 -34.082031 29.710938 -34.78125 27.265625 -34.78125 Z M 27.265625 -34.78125 "/></g></g></g><g fill="#ffffff" fill-opacity="1"><g transform="translate(639.392443, 142.366257)"><g><path d="M 21.578125 0.75 C 17.785156 0.75 14.046875 0.316406 10.359375 -0.546875 C 6.679688 -1.410156 3.726562 -2.539062 1.5 -3.9375 L 6.265625 -14.796875 C 8.328125 -13.515625 10.78125 -12.5 13.625 -11.75 C 16.46875 -11 19.285156 -10.625 22.078125 -10.625 C 24.640625 -10.625 26.460938 -10.882812 27.546875 -11.40625 C 28.640625 -11.9375 29.1875 -12.707031 29.1875 -13.71875 C 29.1875 -14.71875 28.53125 -15.425781 27.21875 -15.84375 C 25.90625 -16.257812 23.828125 -16.664062 20.984375 -17.0625 C 17.359375 -17.507812 14.273438 -18.09375 11.734375 -18.8125 C 9.203125 -19.539062 7.015625 -20.878906 5.171875 -22.828125 C 3.335938 -24.773438 2.421875 -27.507812 2.421875 -31.03125 C 2.421875 -33.925781 3.285156 -36.5 5.015625 -38.75 C 6.742188 -41.007812 9.265625 -42.796875 12.578125 -44.109375 C 15.898438 -45.421875 19.875 -46.078125 24.5 -46.078125 C 27.789062 -46.078125 31.050781 -45.742188 34.28125 -45.078125 C 37.519531 -44.410156 40.222656 -43.460938 42.390625 -42.234375 L 37.625 -31.4375 C 33.613281 -33.664062 29.265625 -34.78125 24.578125 -34.78125 C 22.078125 -34.78125 20.238281 -34.488281 19.0625 -33.90625 C 17.894531 -33.320312 17.3125 -32.554688 17.3125 -31.609375 C 17.3125 -30.546875 17.953125 -29.804688 19.234375 -29.390625 C 20.515625 -28.972656 22.632812 -28.539062 25.59375 -28.09375 C 29.320312 -27.539062 32.410156 -26.898438 34.859375 -26.171875 C 37.316406 -25.453125 39.453125 -24.128906 41.265625 -22.203125 C 43.078125 -20.273438 43.984375 -17.582031 43.984375 -14.125 C 43.984375 -11.289062 43.117188 -8.742188 41.390625 -6.484375 C 39.660156 -4.222656 37.109375 -2.453125 33.734375 -1.171875 C 30.367188 0.109375 26.316406 0.75 21.578125 0.75 Z M 21.578125 0.75 "/></g></g></g><g clip-path="url(#5a07905084)"><g clip-path="url(#0d3972e645)"><g clip-path="url(#29f33dd3e9)"><path fill="#000000" d="M 387.039062 100.371094 L 396.644531 98.03125 L 392.171875 112.792969 L 397.800781 111.417969 L 386.722656 140.09375 L 389.703125 119.222656 L 383.652344 121.019531 Z M 387.039062 100.371094 " fill-opacity="1" fill-rule="nonzero"/></g></g></g><g clip-path="url(#7aebc8e967)"><g clip-path="url(#5a170bfc10)"><g clip-path="url(#d19525d4c7)"><path fill="#000000" d="M 387.039062 100.371094 L 388.695312 99.96875 L 383.652344 121.019531 Z M 386.722656 140.09375 L 390.863281 118.941406 L 389.703125 119.222656 Z M 386.722656 140.09375 " fill-opacity="1" fill-rule="nonzero"/></g></g></g></svg>